<svg width="816" height="201" viewBox="0 0 816 201" fill="none" xmlns="http://www.w3.org/2000/svg">
<path d="M176.8 145V56.936H231.456V66.408H187.808V97.768H226.72V107.24H187.808V145H176.8ZM249.175 145V56.936H260.183V145H249.175ZM308.456 145L276.712 56.936H288.232L315.24 132.2H315.88L342.888 56.936H354.024L322.28 145H308.456ZM370.675 145V56.936H427.891V66.408H381.683V95.72H421.875V105.32H381.683V135.528H427.891V145H370.675ZM465.336 145L437.176 56.936H455.864L477.368 125.672H478.008L499.256 56.936H517.56L489.4 145H465.336ZM530.371 145V56.936H548.547V145H530.371ZM600.472 146.024C597.229 146.024 593.645 145.939 589.72 145.768C585.88 145.597 582.125 145.341 578.456 145C574.787 144.744 571.416 144.445 568.344 144.104V129.64C571.501 129.896 574.701 130.152 577.944 130.408C581.272 130.664 584.429 130.877 587.416 131.048C590.403 131.133 592.963 131.176 595.096 131.176C599.448 131.176 602.819 131.005 605.208 130.664C607.597 130.237 609.389 129.64 610.584 128.872C611.523 128.189 612.163 127.464 612.504 126.696C612.845 125.843 613.059 124.861 613.144 123.752C613.229 122.557 613.272 121.235 613.272 119.784C613.272 117.821 613.144 116.2 612.888 114.92C612.717 113.64 612.376 112.659 611.864 111.976C611.352 111.208 610.499 110.653 609.304 110.312C608.195 109.971 606.744 109.715 604.952 109.544L585.24 107.112C581.315 106.6 578.072 105.704 575.512 104.424C573.037 103.144 571.075 101.437 569.624 99.304C568.173 97.1707 567.149 94.6533 566.552 91.752C566.04 88.8507 565.784 85.5653 565.784 81.896C565.784 76.0933 566.595 71.4853 568.216 68.072C569.837 64.6587 572.099 62.056 575 60.264C577.987 58.472 581.485 57.32 585.496 56.808C589.507 56.2107 593.859 55.912 598.552 55.912C601.965 55.912 605.464 56.04 609.048 56.296C612.632 56.4667 616.003 56.7227 619.16 57.064C622.317 57.4053 624.963 57.832 627.096 58.344V72.424C624.963 72.0827 622.488 71.784 619.672 71.528C616.856 71.272 613.912 71.1013 610.84 71.016C607.768 70.8453 604.867 70.76 602.136 70.76C598.125 70.76 594.925 70.9307 592.536 71.272C590.232 71.528 588.44 71.9973 587.16 72.68C585.709 73.5333 584.813 74.6427 584.472 76.008C584.216 77.3733 584.088 79.08 584.088 81.128C584.088 83.688 584.259 85.6507 584.6 87.016C584.941 88.296 585.752 89.192 587.032 89.704C588.312 90.216 590.317 90.6427 593.048 90.984L612.76 93.288C615.149 93.544 617.368 93.9707 619.416 94.568C621.464 95.1653 623.299 96.104 624.92 97.384C626.541 98.664 627.864 100.456 628.888 102.76C629.485 103.955 629.955 105.363 630.296 106.984C630.637 108.52 630.893 110.269 631.064 112.232C631.32 114.195 631.448 116.371 631.448 118.76C631.448 123.709 630.936 127.848 629.912 131.176C628.973 134.504 627.608 137.149 625.816 139.112C624.024 141.075 621.805 142.568 619.16 143.592C616.6 144.616 613.741 145.256 610.584 145.512C607.427 145.853 604.056 146.024 600.472 146.024ZM683.559 146.024C676.391 146.024 670.46 145.597 665.767 144.744C661.159 143.891 657.532 142.483 654.887 140.52C652.242 138.472 650.322 135.741 649.127 132.328C647.932 128.829 647.164 124.52 646.823 119.4C646.482 114.28 646.311 108.136 646.311 100.968C646.311 93.8 646.482 87.656 646.823 82.536C647.164 77.416 647.932 73.1493 649.127 69.736C650.322 66.2373 652.242 63.5067 654.887 61.544C657.532 59.496 661.159 58.0453 665.767 57.192C670.46 56.3387 676.391 55.912 683.559 55.912C690.727 55.912 696.615 56.3387 701.223 57.192C705.916 58.0453 709.586 59.496 712.231 61.544C714.876 63.5067 716.796 66.2373 717.991 69.736C719.271 73.1493 720.082 77.416 720.423 82.536C720.764 87.656 720.935 93.8 720.935 100.968C720.935 108.136 720.764 114.28 720.423 119.4C720.082 124.52 719.271 128.829 717.991 132.328C716.796 135.741 714.876 138.472 712.231 140.52C709.586 142.483 705.916 143.891 701.223 144.744C696.615 145.597 690.727 146.024 683.559 146.024ZM683.559 131.176C687.314 131.176 690.343 131.048 692.647 130.792C695.036 130.536 696.914 129.939 698.279 129C699.644 128.061 700.626 126.525 701.223 124.392C701.906 122.259 702.332 119.315 702.503 115.56C702.674 111.805 702.759 106.941 702.759 100.968C702.759 94.9947 702.674 90.1307 702.503 86.376C702.332 82.6213 701.906 79.6773 701.223 77.544C700.626 75.4107 699.644 73.8747 698.279 72.936C696.914 71.9973 695.036 71.4 692.647 71.144C690.343 70.888 687.314 70.76 683.559 70.76C679.89 70.76 676.86 70.888 674.471 71.144C672.167 71.4 670.332 71.9973 668.967 72.936C667.602 73.8747 666.578 75.4107 665.895 77.544C665.298 79.6773 664.914 82.6213 664.743 86.376C664.572 90.1307 664.487 94.9947 664.487 100.968C664.487 106.941 664.572 111.805 664.743 115.56C664.914 119.315 665.298 122.259 665.895 124.392C666.578 126.525 667.602 128.061 668.967 129C670.332 129.939 672.167 130.536 674.471 130.792C676.86 131.048 679.89 131.176 683.559 131.176ZM739.371 145V56.936H781.483C787.2 56.936 791.766 57.576 795.179 58.856C798.678 60.136 801.323 62.0133 803.115 64.488C804.907 66.8773 806.102 69.8213 806.699 73.32C807.382 76.7333 807.723 80.5733 807.723 84.84C807.723 87.8267 807.467 91.0267 806.955 94.44C806.443 97.8533 805.291 101.011 803.499 103.912C801.792 106.813 799.062 108.947 795.307 110.312L809.387 145H790.187L776.875 109.672L781.355 112.104C780.758 112.36 780.032 112.531 779.179 112.616C778.411 112.701 777.515 112.744 776.491 112.744H757.547V145H739.371ZM757.547 98.024H774.187C777.771 98.024 780.587 97.8107 782.635 97.384C784.683 96.9573 786.219 96.2747 787.243 95.336C788.267 94.312 788.907 92.9893 789.163 91.368C789.419 89.6613 789.547 87.4853 789.547 84.84C789.547 82.1947 789.419 80.0187 789.163 78.312C788.907 76.6053 788.31 75.2827 787.371 74.344C786.432 73.4053 784.896 72.7227 782.763 72.296C780.715 71.8693 777.899 71.656 774.315 71.656H757.547V98.024Z" fill="white"/>
<path d="M118 101H84C72.9543 101 64 92.0457 64 81V47C64 41.4772 59.5229 37 54 37H10C4.47715 37 0 41.4772 0 47V91C0 96.5229 4.47715 101 10 101H44C55.0457 101 64 109.954 64 121V155C64 160.523 68.4771 165 74 165H118C123.523 165 128 160.523 128 155V111C128 105.477 123.523 101 118 101Z" fill="white"/>
</svg>
